<?xml version="1.0" standalone="no"?>
<!DOCTYPE svg PUBLIC "-//W3C//DTD SVG 20010904//EN"
 "http://www.w3.org/TR/2001/REC-SVG-20010904/DTD/svg10.dtd">
<svg version="1.0" xmlns="http://www.w3.org/2000/svg"
 width="300.000000pt" height="370.000000pt" viewBox="0 0 300.000000 370.000000"
 preserveAspectRatio="xMidYMid meet">
<metadata>
Created by potrace 1.10, written by Peter Selinger 2001-2011
</metadata>
<g transform="translate(0.000000,370.000000) scale(0.100000,-0.100000)"
fill="#000000" stroke="none">
<path d="M1395 3579 c-11 -4 -32 -8 -48 -8 -15 -1 -35 -5 -45 -10 -9 -5 -31
-15 -49 -21 -69 -26 -258 -158 -337 -236 -34 -34 -101 -115 -101 -124 -1 -3
-12 -23 -26 -45 -26 -41 -42 -74 -78 -157 -16 -37 -17 -47 -6 -52 16 -6 49 29
41 43 -3 5 6 24 21 42 19 22 23 31 11 27 -13 -5 -10 6 13 48 17 30 27 54 24
54 -4 0 5 14 19 31 14 17 26 34 26 38 0 12 101 111 114 111 7 0 23 12 35 26
17 20 28 24 49 20 26 -6 26 -6 7 9 -18 15 -18 15 12 9 27 -5 30 -4 29 17 -1
16 8 28 29 39 17 8 32 18 33 23 2 4 10 7 18 7 9 0 12 -5 8 -12 -4 -8 -3 -10 2
-5 5 5 9 14 9 20 0 7 8 11 18 9 9 -2 17 1 17 6 0 14 51 33 71 27 12 -4 21 -1
24 8 3 7 11 14 18 14 7 0 22 3 35 7 17 6 22 3 22 -9 0 -9 9 -25 19 -37 22 -23
24 -1 2 26 -27 33 9 44 58 17 13 -7 21 -8 17 -3 -3 6 2 13 11 16 26 8 86 -7
91 -23 3 -8 0 -11 -7 -7 -7 5 -9 1 -5 -8 3 -9 14 -16 23 -15 10 0 11 2 3 6 -6
2 -10 8 -8 12 7 11 76 3 92 -10 8 -6 14 -8 14 -4 0 5 9 0 20 -10 11 -10 20
-14 20 -10 0 5 7 0 16 -11 8 -10 12 -13 9 -6 -6 11 -3 11 13 1 10 -7 19 -17
19 -23 -1 -17 26 -76 35 -76 4 0 10 5 13 10 3 6 1 10 -4 10 -6 0 -11 7 -11 15
0 8 -4 15 -10 15 -5 0 -10 9 -10 21 0 21 0 21 21 -2 17 -20 20 -21 15 -5 -6
17 -5 17 11 5 50 -39 55 -65 13 -74 -16 -4 -30 -11 -30 -16 0 -6 8 -6 19 1 11
5 29 10 41 10 12 0 18 5 15 10 -3 6 0 10 7 10 9 0 9 3 -2 10 -8 5 -10 10 -5
10 22 -1 45 -29 46 -56 1 -19 3 -22 6 -11 4 15 17 6 71 -49 37 -38 70 -67 75
-66 4 1 6 -1 6 -5 -4 -24 2 -43 12 -38 6 4 13 -2 16 -14 3 -12 9 -21 14 -21 5
0 9 -6 9 -14 0 -7 10 -21 23 -30 15 -12 16 -15 5 -12 -10 3 -20 0 -24 -6 -4
-6 -3 -8 3 -5 14 9 28 -9 42 -55 7 -21 16 -38 21 -38 9 0 20 -33 25 -73 3 -28
30 -67 47 -67 5 0 4 9 -2 19 -5 11 -10 30 -10 44 0 13 -3 27 -7 31 -4 4 -15
30 -23 59 -11 33 -22 51 -30 49 -10 -2 -11 0 -2 11 10 11 9 17 -2 26 -8 7 -12
19 -9 27 3 8 0 14 -7 14 -6 0 -8 5 -5 10 4 6 -3 21 -15 33 -12 12 -21 25 -21
29 1 16 -211 215 -242 228 -7 3 -30 17 -53 31 -72 47 -180 96 -250 114 -75 19
-227 27 -259 14z"/>
<path d="M1266 3478 c14 -23 13 -58 -2 -58 -8 0 -14 -4 -14 -10 0 -5 8 -6 18
-3 15 6 16 5 2 -12 -13 -15 -13 -18 -1 -13 17 5 34 58 20 58 -6 0 -9 6 -8 13
3 24 -1 37 -12 37 -5 0 -7 -5 -3 -12z"/>
<path d="M1437 3449 c-18 -20 -18 -21 3 -14 18 6 20 4 11 -12 -5 -10 -12 -27
-16 -38 -4 -12 -9 -15 -13 -9 -4 7 -15 8 -27 3 -19 -7 -17 -9 18 -13 6 -1 11
-7 10 -13 -2 -7 6 -11 17 -10 14 1 16 5 9 13 -7 9 -4 25 9 53 12 24 15 39 8
38 -6 -1 -10 4 -8 11 3 17 -1 15 -21 -9z"/>
<path d="M1492 3440 c-7 -11 -12 -28 -11 -37 0 -12 4 -8 11 10 5 15 14 27 19
27 6 0 7 -4 4 -10 -3 -5 -1 -10 4 -10 15 0 14 15 -2 28 -9 8 -16 6 -25 -8z"/>
<path d="M1574 3448 c-4 -7 -2 -8 4 -4 17 10 15 -10 -4 -45 -8 -17 -13 -33
-10 -36 9 -9 37 18 30 29 -3 5 0 15 6 23 7 8 9 15 5 15 -4 0 -3 6 3 13 8 10 6
13 -8 14 -11 1 -23 -3 -26 -9z"/>
<path d="M1729 3438 c-6 -22 -5 -38 3 -38 6 0 5 -6 -2 -15 -7 -9 -10 -19 -6
-23 4 -4 13 1 20 11 17 22 26 22 26 -3 0 -14 7 -20 21 -20 11 0 17 5 14 10 -3
6 2 10 12 10 10 1 -2 8 -27 17 -45 15 -63 30 -54 45 3 4 3 8 0 8 -3 0 -6 -1
-7 -2z"/>
<path d="M1622 3418 c-16 -16 -15 -38 2 -38 8 0 17 -7 20 -16 5 -13 9 -14 21
-4 20 16 8 39 -17 32 -17 -4 -19 -2 -13 17 7 24 4 26 -13 9z"/>
<path d="M1115 3400 c-3 -5 -3 -10 1 -10 4 0 -1 -10 -12 -22 -15 -18 -16 -20
-2 -9 10 7 27 11 38 8 17 -4 18 -2 10 13 -13 25 -27 33 -35 20z"/>
<path d="M1499 3388 c-5 -9 -15 -16 -22 -14 -6 1 -9 1 -4 -1 4 -3 5 -9 1 -14
-10 -17 10 -9 34 14 21 18 24 19 19 4 -4 -10 -3 -16 2 -13 5 3 11 14 14 25 6
25 -30 25 -44 -1z"/>
<path d="M771 2954 c-17 -19 -29 -39 -26 -44 3 -5 1 -11 -5 -15 -5 -3 -10 -14
-10 -23 1 -13 4 -12 13 6 7 12 17 19 22 15 4 -4 5 -3 1 4 -3 6 -2 14 3 18 6 3
8 12 4 20 -3 8 -1 15 4 15 4 0 14 9 21 20 19 30 8 24 -27 -16z"/>
<path d="M681 2902 c-9 -17 -16 -61 -26 -152 -2 -25 -9 -67 -14 -95 -14 -70
-19 -165 -9 -165 5 0 7 -4 4 -9 -3 -5 1 -15 10 -22 24 -20 67 -98 61 -113 -3
-7 -2 -19 3 -26 5 -8 10 2 15 29 4 22 11 42 16 42 5 1 15 2 22 3 6 0 13 11 13
24 1 18 1 19 -3 2 -4 -17 -7 -18 -26 -9 -12 7 -25 18 -30 25 -4 7 -14 11 -22
8 -20 -8 -19 6 0 20 9 6 17 23 18 36 1 14 8 35 15 47 6 12 12 43 13 70 1 26 7
62 14 80 8 17 11 34 7 37 -3 3 0 6 7 6 7 0 11 7 8 15 -4 8 -2 17 3 20 11 7 2
35 -11 35 -16 0 -51 -92 -40 -103 7 -7 7 -15 -1 -24 -6 -8 -12 -36 -12 -64 0
-27 -4 -49 -9 -49 -5 0 -7 -6 -4 -13 3 -8 1 -20 -4 -28 -7 -12 -9 -12 -9 0 0
8 -3 11 -6 8 -4 -4 -1 -14 7 -24 8 -9 9 -14 3 -10 -7 4 -14 0 -18 -8 -11 -29
-25 -16 -16 16 5 16 6 37 3 46 -4 11 -2 14 5 9 12 -7 38 41 28 51 -2 3 -7 -5
-11 -16 -3 -12 -11 -21 -17 -21 -5 0 -7 7 -4 16 3 9 6 24 6 35 0 11 9 27 20
36 24 21 25 30 5 30 -8 0 -12 -3 -10 -7 2 -4 -2 -7 -9 -7 -11 0 -11 7 2 36 10
20 20 38 23 41 3 3 5 15 5 27 0 15 -4 19 -12 12 -8 -7 -10 -2 -7 18 2 16 5 40
7 56 2 15 6 30 11 35 4 4 5 -1 2 -10 -3 -10 -2 -20 3 -23 6 -4 10 -2 10 4 0 5
2 16 5 23 8 20 -33 20 -44 0z"/>
<path d="M784 2893 c-11 -26 -13 -74 -3 -67 5 3 8 15 7 27 0 12 3 30 7 40 4 9
5 17 2 17 -3 0 -8 -8 -13 -17z"/>
<path d="M2264 2871 c1 -13 12 -34 24 -46 12 -13 22 -29 22 -36 -1 -10 -5 -8
-14 4 -13 17 -14 16 -12 -7 0 -13 4 -22 8 -20 6 4 9 -4 24 -58 3 -10 1 -18 -5
-18 -6 0 -11 7 -11 15 0 8 -5 15 -11 15 -15 0 0 -42 20 -57 9 -6 13 -14 9 -18
-4 -4 -3 -18 3 -32 6 -17 6 -22 -2 -17 -6 3 -10 -1 -9 -12 1 -11 2 -28 1 -39
-1 -17 -3 -18 -11 -5 -5 8 -10 11 -10 6 0 -5 -11 1 -25 14 -23 21 -26 48 -3
34 5 -3 2 8 -7 25 -16 32 -34 34 -33 3 0 -9 -3 -25 -7 -34 -4 -11 -3 -18 4
-18 18 0 80 -53 74 -62 -2 -5 -12 -3 -21 4 -15 12 -16 11 -3 -4 15 -20 15 -20
-16 -23 -19 -2 -20 1 -12 21 6 19 5 24 -6 24 -14 0 -17 -5 -19 -39 -1 -8 -8
-17 -16 -20 -8 -3 -16 -13 -18 -21 -3 -11 2 -10 17 4 13 12 21 14 21 7 0 -7 4
-9 10 -6 5 3 7 0 4 -8 -7 -19 14 -97 26 -97 13 0 13 27 0 35 -5 3 -10 11 -10
16 0 6 5 7 10 4 6 -4 10 6 10 22 0 22 2 25 11 13 8 -12 9 -10 4 7 -4 15 1 28
16 42 13 12 26 21 31 21 4 0 5 7 2 15 -4 8 -2 15 4 15 16 0 22 43 9 59 -8 10
-9 13 0 8 13 -8 12 66 -3 143 -4 25 -7 49 -5 54 3 12 -29 46 -44 46 -7 0 -17
10 -23 23 l-11 22 3 -24z"/>
<path d="M746 2855 c-3 -8 -12 -12 -20 -9 -11 4 -13 0 -9 -15 3 -12 9 -21 13
-21 13 0 40 49 31 54 -5 3 -11 -1 -15 -9z"/>
<path d="M2188 2810 c2 -16 8 -28 12 -25 8 5 20 -27 24 -62 2 -28 23 -51 34
-37 4 5 5 8 3 7 -5 -3 -41 95 -39 106 2 19 -3 31 -12 26 -5 -3 -10 -1 -10 4 0
6 -4 11 -8 11 -5 0 -7 -13 -4 -30z"/>
<path d="M1946 2724 c-3 -8 -10 -13 -15 -10 -4 3 -25 8 -45 10 -40 5 -62 -18
-35 -35 21 -13 29 -11 30 9 0 14 2 14 9 -3 7 -16 9 -17 9 -3 1 13 8 16 39 12
20 -2 32 -2 25 2 -7 3 -9 12 -6 20 3 8 3 14 0 14 -3 0 -8 -7 -11 -16z"/>
<path d="M1783 2705 c-10 -11 -9 -14 5 -18 9 -3 -6 -3 -35 -2 -40 2 -56 -1
-69 -16 -9 -11 -23 -19 -31 -19 -8 0 -11 -5 -8 -10 4 -6 11 -7 17 -4 6 4 34 6
62 6 28 -1 56 1 62 6 13 8 34 46 34 61 0 15 -23 13 -37 -4z"/>
<path d="M1007 2679 c-19 -21 -15 -24 13 -9 13 7 23 6 32 -3 7 -6 24 -14 38
-15 32 -5 38 -11 21 -21 -7 -5 5 -7 30 -5 24 1 49 -2 56 -8 15 -12 63 -3 63
12 0 6 7 10 16 10 9 0 12 -5 8 -12 -6 -10 -4 -10 7 0 20 18 -4 40 -26 22 -15
-13 -19 -8 -16 23 1 9 -3 17 -9 17 -6 0 -10 -8 -8 -17 3 -15 -6 -18 -52 -19
-51 -2 -52 -2 -15 6 37 7 38 7 9 9 -18 0 -34 8 -38 16 -3 8 -12 15 -21 15 -8
0 -15 -7 -15 -15 0 -8 5 -15 12 -15 6 0 9 -2 6 -5 -5 -6 -58 14 -68 25 -11 12
-28 8 -43 -11z"/>
<path d="M2040 2672 c0 -4 6 -14 13 -21 10 -10 0 -12 -48 -11 -143 4 -184 -4
-56 -10 126 -6 135 -8 154 -31 17 -21 19 -22 16 -4 -2 11 -14 25 -27 30 -13 6
-25 20 -29 33 -5 21 -23 32 -23 14z"/>
<path d="M899 2628 c-10 -18 -9 -20 6 -15 9 4 20 7 25 7 4 0 10 6 13 13 8 22
-32 17 -44 -5z"/>
<path d="M1608 2608 c-21 -10 -38 -25 -38 -33 0 -11 -13 -15 -47 -16 -27 -1
-68 -2 -93 -3 -34 -1 -49 4 -67 22 -16 16 -33 22 -65 21 l-43 -1 44 -9 c24 -4
49 -14 57 -20 18 -15 19 -109 2 -109 -10 0 -10 -2 0 -9 11 -7 11 -11 -2 -24
-9 -8 -11 -17 -6 -19 6 -2 0 -23 -12 -48 -20 -40 -29 -46 -73 -58 -34 -9 -103
-12 -212 -10 -205 4 -203 2 -211 141 -4 88 -3 96 18 117 18 18 29 21 59 16 23
-3 31 -2 22 3 -10 7 1 11 35 16 78 10 85 15 14 10 -93 -6 -139 -22 -152 -51
-6 -13 -19 -24 -30 -24 -15 0 -18 -8 -18 -55 0 -47 3 -55 19 -55 14 0 20 -10
25 -44 10 -66 28 -76 156 -89 115 -11 278 1 322 24 33 18 13 -5 -32 -36 -22
-15 -64 -32 -93 -37 -80 -14 -81 -14 -84 -25 -2 -6 5 -13 16 -16 11 -3 22 0
23 5 2 5 20 10 40 11 20 0 35 3 33 6 -2 4 8 7 21 7 12 1 35 11 50 23 34 27 79
91 64 91 -6 0 -8 5 -5 10 4 6 10 8 15 5 5 -3 12 0 16 6 5 8 3 9 -6 4 -10 -6
-12 -4 -6 11 4 10 10 33 14 49 6 30 6 30 12 5 6 -21 8 -17 15 25 4 28 15 56
24 64 14 12 13 13 -11 7 -16 -4 -28 -2 -28 3 0 12 25 21 58 21 21 0 24 -2 12
-10 -9 -6 -10 -10 -3 -10 6 0 15 5 18 10 3 6 24 10 46 10 21 0 39 -4 39 -10 0
-5 -4 -10 -9 -10 -11 0 15 -123 35 -161 10 -20 21 -29 30 -25 8 3 25 -1 37 -8
34 -22 132 -29 237 -17 206 24 240 40 240 110 0 30 4 40 20 44 16 4 20 13 20
49 0 50 -12 73 -33 65 -12 -4 -15 -24 -15 -91 -1 -47 -6 -94 -12 -105 -18 -34
-157 -60 -316 -61 -117 0 -149 11 -175 61 -11 22 -19 45 -17 52 1 7 -3 21 -9
32 -10 18 -17 68 -14 103 1 7 6 10 13 6 7 -5 8 -3 3 6 -6 10 -4 12 9 7 11 -5
15 -3 10 5 -5 7 0 9 14 6 12 -4 20 -2 17 2 -3 5 5 10 17 12 21 3 22 4 3 9 -11
3 -37 -3 -57 -13z"/>
<path d="M1775 2610 c3 -5 -3 -10 -15 -10 -19 0 -120 -46 -120 -54 0 -5 63 17
70 24 8 8 31 12 88 18 62 5 128 -16 185 -60 39 -31 51 -22 16 13 -32 32 -99
59 -151 59 -26 0 -50 5 -53 10 -3 6 -11 10 -16 10 -6 0 -7 -4 -4 -10z"/>
<path d="M1129 2591 c9 -6 -3 -11 -35 -16 -60 -9 -110 -34 -148 -74 -17 -17
-36 -31 -45 -31 -8 0 -11 -3 -8 -6 11 -11 65 16 102 51 66 63 171 68 275 13
19 -10 42 -18 50 -18 24 1 -121 70 -146 70 -13 0 -26 5 -29 10 -3 6 -12 10
-18 10 -8 0 -8 -3 2 -9z"/>
<path d="M1740 2546 c-19 -8 -51 -20 -70 -28 -20 -7 -37 -17 -39 -23 -3 -12
33 -23 74 -23 28 0 28 1 6 7 -37 10 -35 25 4 44 l35 17 0 -30 c0 -36 7 -40 75
-47 l55 -6 6 32 c7 34 11 36 36 17 10 -7 14 -16 8 -22 -5 -5 7 -10 31 -11 22
0 54 -7 70 -14 25 -10 33 -10 45 3 13 13 12 14 -13 11 -20 -3 -53 8 -108 37
-90 48 -158 59 -215 36z"/>
<path d="M1073 2537 c-24 -5 -59 -24 -80 -41 l-36 -32 41 0 c26 1 37 5 32 11
-11 13 -1 29 23 38 14 5 17 1 17 -22 0 -41 20 -53 76 -47 52 5 67 19 59 55
l-6 23 32 -18 c36 -21 40 -37 9 -42 -11 -2 -20 -10 -20 -18 0 -8 -5 -14 -12
-14 -6 0 -9 -3 -6 -6 3 -3 26 5 50 17 23 13 48 22 55 21 6 -2 14 1 17 6 5 9
-23 23 -129 63 -55 21 -61 21 -122 6z m77 -12 c10 -12 9 -15 -6 -15 -12 0 -15
-3 -8 -8 9 -5 9 -10 0 -18 -10 -9 -13 -4 -13 22 0 37 8 42 27 19z"/>
<path d="M2404 2525 c1 -8 5 -17 8 -21 4 -3 -11 -28 -32 -55 -21 -27 -42 -59
-46 -72 -8 -28 -34 -58 -45 -52 -4 3 -11 0 -15 -6 -4 -8 -3 -9 4 -5 7 4 12 2
12 -3 0 -6 -4 -11 -10 -11 -5 0 -7 -21 -3 -49 4 -34 1 -62 -10 -88 -13 -33
-22 -94 -18 -127 1 -5 8 -3 16 4 11 9 12 17 4 32 -8 14 -8 23 0 31 6 6 11 19
11 29 0 10 6 17 13 15 9 -1 12 19 14 73 1 76 5 88 49 170 l24 45 -4 -95 c-3
-52 -7 -108 -9 -125 -3 -16 -6 -38 -6 -47 -1 -10 -9 -26 -19 -36 -22 -22 -35
-52 -23 -52 5 0 14 7 21 15 21 25 22 10 4 -46 -19 -61 -49 -99 -76 -99 -13 0
-18 8 -19 33 l-1 32 -12 -35 c-15 -46 -25 -62 -37 -55 -5 4 -9 -3 -9 -14 0
-12 -6 -21 -13 -21 -8 0 -12 -12 -11 -32 2 -43 -28 -142 -40 -131 -5 5 -6 2
-1 -6 10 -17 -15 -92 -28 -84 -6 3 -7 1 -4 -4 4 -6 -7 -36 -25 -68 -17 -31
-27 -60 -22 -64 5 -3 11 -17 13 -31 1 -14 7 -27 11 -30 12 -8 -18 -197 -42
-265 -27 -76 -84 -194 -105 -217 -12 -14 -13 -18 -3 -18 9 0 5 -9 -10 -25 -13
-14 -20 -25 -16 -25 4 0 2 -9 -4 -20 -6 -11 -18 -20 -26 -20 -8 0 -13 -4 -9
-9 5 -10 -40 -62 -48 -55 -2 2 -12 -5 -21 -15 -16 -17 -16 -19 -2 -17 9 1 22
8 28 14 27 27 30 10 3 -18 -16 -17 -26 -30 -22 -30 3 0 18 12 32 27 14 15 25
22 25 16 0 -7 -4 -15 -10 -18 -15 -9 -12 -25 4 -25 19 0 76 -69 76 -92 0 -10
4 -18 10 -18 5 0 6 -7 3 -17 -4 -11 -3 -14 5 -9 8 5 12 0 12 -13 0 -12 5 -21
11 -21 6 0 9 7 6 15 -4 8 -1 17 5 21 7 5 9 -4 4 -30 -4 -20 -3 -36 2 -36 8 0
14 49 16 137 1 17 4 29 7 27 10 -6 21 48 12 57 -5 5 -21 -20 -37 -56 -15 -36
-32 -65 -36 -65 -12 0 -6 24 13 53 20 31 44 90 104 257 41 115 44 134 49 247
5 110 1 145 -23 227 -4 14 -2 16 8 10 9 -5 8 1 -3 18 -22 33 -17 65 28 171 31
72 67 182 94 284 10 40 12 42 40 36 49 -9 76 17 101 99 12 40 25 104 30 141 5
42 18 84 34 112 15 24 26 52 25 62 -1 10 -2 20 -1 23 8 20 6 158 -2 168 -13
17 -36 15 -33 -3z m12 -117 c-3 -18 -5 -44 -6 -58 0 -21 -2 -22 -10 -8 -8 13
-9 41 -1 91 0 4 5 7 11 7 5 0 8 -15 6 -32z m-321 -1218 c0 -65 -3 -116 -7
-113 -5 2 -8 -4 -8 -14 0 -29 -76 -256 -105 -313 -14 -27 -30 -50 -35 -50 -15
0 -12 12 13 50 28 42 57 114 93 230 23 73 27 104 28 217 1 88 4 129 11 122 6
-6 10 -63 10 -129z m-40 -67 c-12 -105 -46 -217 -96 -321 -27 -56 -49 -104
-49 -107 0 -3 7 -5 15 -5 17 0 19 -9 5 -30 -6 -9 -10 -10 -10 -3 0 7 -16 28
-36 47 l-37 36 25 25 c22 22 58 105 109 248 24 68 27 38 4 -35 -36 -115 -54
-159 -81 -206 -21 -35 -23 -46 -14 -55 10 -9 11 -9 6 1 -4 6 -3 12 2 12 25 0
132 288 132 356 0 26 20 94 27 94 3 0 2 -26 -2 -57z m-155 -280 c0 -15 -41
-75 -47 -70 -3 3 5 22 17 41 21 35 30 43 30 29z m83 -210 c-5 -32 -33 -56 -33
-28 0 8 5 15 10 15 6 0 9 3 8 8 -1 8 13 44 17 40 1 -2 0 -17 -2 -35z"/>
<path d="M547 2429 c-11 -15 -12 -30 -6 -57 5 -20 9 -55 9 -78 0 -51 18 -106
33 -97 6 3 7 1 3 -6 -4 -6 0 -24 9 -38 10 -14 21 -59 26 -99 17 -132 55 -204
110 -204 14 0 32 7 39 15 13 15 5 55 -12 55 -5 0 -8 -6 -5 -14 5 -13 -10 -36
-24 -36 -13 0 -59 50 -59 64 0 8 -4 16 -9 18 -5 2 -13 17 -17 33 -6 26 -5 28
8 17 9 -7 24 -14 34 -16 11 -2 24 -5 29 -6 22 -5 35 1 35 16 0 12 -3 14 -13 6
-8 -7 -18 -7 -27 -2 -9 5 -17 5 -20 0 -11 -17 -60 73 -60 109 0 34 -19 101
-31 111 -4 3 -9 16 -13 30 -7 24 -6 24 8 6 15 -19 16 -17 16 26 0 26 3 53 6
62 4 10 -6 27 -25 47 -25 25 -29 34 -20 45 8 9 8 14 1 14 -6 0 -17 -9 -25 -21z"/>
<path d="M1698 2420 c15 -12 18 -20 10 -23 -7 -2 -4 -3 6 -1 11 2 26 -1 32 -7
7 -6 43 -15 80 -20 56 -8 78 -6 122 7 35 11 50 20 43 27 -6 6 -24 4 -52 -7
-55 -22 -169 -8 -224 28 -33 22 -45 20 -17 -4z"/>
<path d="M1250 2400 c-8 -5 -25 -10 -37 -10 -13 0 -23 -4 -23 -10 0 -5 -9 -10
-21 -10 -11 0 -30 -5 -42 -11 -11 -7 -22 -8 -24 -3 -2 5 -34 8 -73 6 -99 -5
-77 -22 28 -22 96 0 153 12 194 42 16 10 32 16 38 13 5 -3 10 -1 10 4 0 14
-30 14 -50 1z"/>
<path d="M1560 2342 c0 -7 -4 -10 -10 -7 -21 13 -9 -17 16 -38 16 -14 27 -36
31 -62 4 -28 14 -47 34 -63 33 -26 62 -20 31 6 -21 19 -62 90 -62 108 0 7 -7
15 -16 18 -8 3 -13 9 -10 14 2 4 1 14 -5 22 -6 11 -9 12 -9 2z"/>
<path d="M1627 2303 c12 -33 70 -67 108 -65 11 1 31 -2 45 -8 14 -5 44 -11 68
-14 33 -4 42 -2 42 9 0 9 -10 15 -24 15 -49 0 -168 33 -202 56 -42 29 -45 29
-37 7z"/>
<path d="M667 2244 c-3 -4 -1 -16 6 -28 11 -20 13 -35 16 -118 1 -27 5 -36 15
-32 8 3 16 -4 20 -18 5 -14 9 -18 13 -10 3 7 0 19 -7 26 -6 8 -14 47 -17 88
-6 83 -23 115 -46 92z"/>
<path d="M1360 2235 c-8 -10 -9 -23 -2 -42 9 -27 9 -27 13 15 3 23 4 42 3 42
-1 0 -7 -7 -14 -15z"/>
<path d="M1297 2174 c-29 -38 -19 -50 13 -16 34 38 35 39 17 39 -7 0 -20 -11
-30 -23z"/>
<path d="M1677 2110 c3 -12 -1 -22 -10 -26 -9 -3 -13 -13 -10 -24 3 -12 -3
-22 -16 -29 -18 -10 -19 -15 -9 -31 8 -13 16 -16 24 -10 6 6 14 7 17 3 4 -3 6
4 6 18 -1 13 2 43 6 65 4 25 3 44 -3 48 -6 4 -8 -2 -5 -14z"/>
<path d="M1281 2100 c-1 -25 51 -119 68 -123 9 -1 24 1 33 7 15 9 14 12 -10
34 l-27 23 38 -7 c45 -8 52 11 7 21 -19 4 -37 2 -46 -6 -12 -10 -18 -8 -32 12
-9 13 -20 30 -24 39 -6 13 -7 13 -7 0z"/>
<path d="M1582 2055 c-17 -8 -32 -17 -32 -20 0 -8 63 4 73 14 16 16 -8 19 -41
6z"/>
<path d="M1124 1981 c6 -8 -23 -39 -31 -33 -2 2 -15 -6 -30 -18 -14 -11 -21
-20 -15 -20 6 0 17 7 25 15 10 9 17 11 19 4 2 -6 15 3 30 19 21 25 24 31 12
36 -8 3 -13 2 -10 -3z"/>
<path d="M1451 1980 c3 -27 -1 -41 -9 -36 -5 3 -9 -1 -9 -9 0 -8 4 -15 9 -15
4 0 8 -6 8 -13 0 -19 57 -15 76 5 13 13 13 15 -3 13 -10 0 -24 -4 -31 -9 -19
-11 -34 4 -29 30 2 12 0 29 -5 36 -7 10 -8 10 -7 -2z"/>
<path d="M790 1872 c0 -23 72 -205 103 -261 24 -44 32 -74 38 -136 6 -78 6
-81 -20 -102 -21 -19 -22 -22 -6 -16 19 6 19 5 -2 -18 -68 -76 -90 -194 -72
-376 6 -62 8 -120 5 -129 -4 -9 -1 -23 5 -30 7 -9 8 -18 2 -26 -13 -17 -14
-56 -2 -63 5 -3 6 0 3 8 -3 8 -1 18 5 22 7 4 11 -8 12 -32 0 -21 3 -32 6 -24
5 11 7 11 15 0 7 -10 8 -8 2 6 -4 11 -12 44 -18 73 -6 28 -13 52 -17 52 -3 0
-4 10 -2 23 2 12 0 64 -5 115 -9 108 1 240 22 280 15 26 15 26 10 -23 -3 -27
1 -86 9 -130 8 -44 14 -93 12 -110 -1 -16 0 -21 2 -10 8 36 18 35 19 -3 1 -20
7 -50 14 -67 7 -16 15 -38 17 -48 5 -26 64 -140 69 -134 3 2 -5 22 -18 43 -14
25 -17 35 -7 27 9 -7 20 -9 24 -5 5 4 5 1 1 -6 -5 -7 -2 -21 6 -30 8 -9 14
-24 13 -32 0 -8 12 -23 27 -32 27 -17 41 -56 16 -42 -7 3 7 -12 32 -34 25 -22
47 -38 50 -35 3 3 -5 13 -18 23 -12 10 -29 34 -37 53 -7 18 -21 39 -29 46 -9
7 -14 17 -11 21 3 4 -6 19 -20 34 -13 15 -25 29 -25 31 0 3 0 10 0 16 0 5 -4
8 -9 5 -14 -9 -62 117 -68 178 -4 37 -9 53 -14 44 -7 -10 -9 -9 -9 4 0 9 5 20
10 23 12 7 14 165 2 165 -4 0 -13 -5 -20 -12 -9 -9 -12 -9 -12 0 0 6 8 16 19
21 17 9 27 61 12 61 -3 0 -5 21 -5 47 1 32 7 50 20 60 10 7 14 13 8 13 -5 0
-3 4 4 8 10 7 9 16 -3 45 -19 45 -21 97 -3 79 7 -7 17 -12 22 -12 6 0 3 5 -6
11 -21 12 -24 39 -5 40 6 0 2 4 -11 9 -13 6 -28 23 -33 39 -6 16 -17 32 -25
35 -8 3 -14 11 -14 18 0 9 3 9 11 -2 8 -12 9 -11 6 5 -2 11 -9 19 -15 18 -7
-2 -12 0 -13 5 -2 18 -10 41 -34 102 -28 67 -45 94 -45 72z"/>
<path d="M1156 1858 c3 -4 -10 -5 -28 -2 -29 5 -31 4 -13 -7 11 -7 28 -21 39
-30 22 -21 67 -29 161 -28 39 0 160 -1 271 -2 180 -3 203 -2 218 14 10 9 24
17 32 17 8 0 14 5 14 11 0 6 -7 9 -15 6 -8 -4 -17 -2 -20 3 -7 11 -36 1 -50
-17 -6 -7 -26 -11 -47 -10 -20 1 -34 4 -32 7 9 8 -121 40 -165 40 -53 0 -49
-10 6 -14 56 -4 103 -16 103 -27 0 -12 -72 -12 -104 1 -14 5 -26 6 -26 2 0 -9
-250 -6 -259 4 -3 4 2 4 11 1 9 -3 32 -2 50 3 18 6 49 11 68 13 19 2 36 10 38
16 4 13 -18 12 -116 -10 -30 -6 -60 -12 -68 -13 -7 -1 -17 -5 -20 -9 -4 -4
-17 -7 -28 -7 -20 1 -20 2 -3 14 23 18 22 35 -2 33 -11 0 -17 -5 -15 -9z"/>
<path d="M1938 1763 c-9 -10 -19 -28 -22 -40 -6 -19 -4 -22 9 -17 10 4 15 14
12 25 -3 11 -2 19 3 19 4 0 10 7 14 15 7 20 3 19 -16 -2z"/>
<path d="M1609 1746 c-3 -3 -24 -6 -47 -7 -24 -2 -46 -7 -49 -12 -8 -13 87 -1
101 13 5 5 8 10 5 10 -3 0 -8 -2 -10 -4z"/>
<path d="M1360 1732 c0 -13 46 -19 90 -11 l35 6 -40 2 c-22 1 -50 4 -62 7 -13
4 -23 2 -23 -4z"/>
<path d="M1470 1700 c-89 -3 -115 -7 -91 -12 18 -5 48 -8 65 -8 18 0 38 -6 45
-12 11 -10 13 -10 7 0 -5 8 1 12 16 13 63 4 74 6 93 17 13 7 14 11 5 10 -8 -1
-71 -5 -140 -8z"/>
<path d="M1799 1435 c-17 -36 -15 -41 11 -25 8 5 11 12 8 16 -4 4 -3 15 3 25
5 11 6 19 2 19 -4 -1 -15 -16 -24 -35z"/>
<path d="M2162 1296 c0 -11 -3 -43 -6 -71 l-6 -50 20 55 c27 75 28 82 9 85
-11 2 -17 -4 -17 -19z"/>
<path d="M2175 1193 c-30 -90 -37 -134 -54 -310 -5 -55 -14 -118 -20 -140 -10
-37 -31 -186 -35 -251 -3 -55 11 -46 18 11 4 28 17 122 30 207 13 85 30 205
36 265 8 67 23 141 40 189 17 47 25 87 21 98 -5 14 -15 -5 -36 -69z"/>
<path d="M2221 1197 c-27 -71 -42 -144 -55 -267 -8 -74 -22 -175 -31 -225 -8
-49 -17 -108 -20 -130 -2 -22 -7 -58 -11 -80 -7 -37 -6 -39 10 -25 12 9 14 16
7 18 -8 3 -8 8 -3 15 10 12 55 296 67 412 11 116 27 210 42 253 9 23 13 45 10
49 -4 3 -11 -6 -16 -20z"/>
<path d="M2236 1159 c-9 -58 -25 -181 -31 -244 -5 -54 -35 -272 -52 -385 -9
-58 -10 -100 -3 -100 6 0 36 167 45 255 3 22 7 54 10 70 2 17 7 55 10 85 3 30
7 64 9 76 2 11 7 58 11 105 9 110 13 141 20 147 11 12 -7 -225 -35 -453 -6
-47 -11 -102 -12 -123 0 -20 -4 -41 -8 -47 -11 -13 -16 -82 -8 -91 14 -13 26
42 39 166 7 69 14 141 17 160 2 19 5 59 6 88 0 28 4 52 7 52 3 0 7 26 7 58 0
31 1 62 2 67 7 32 -3 122 -15 134 -12 12 -14 9 -19 -20z"/>
<path d="M800 1151 c-13 -24 -13 -81 -1 -81 5 0 9 12 9 28 -1 15 2 37 6 50 9
27 0 29 -14 3z"/>
<path d="M2290 1093 c4 -26 6 -57 5 -68 -2 -11 -6 -67 -10 -125 -3 -58 -9
-121 -12 -140 -3 -19 -6 -51 -6 -70 0 -19 -5 -38 -11 -42 -8 -6 -6 -11 4 -18
12 -8 12 -10 1 -10 -8 0 -11 -7 -8 -20 3 -11 0 -20 -6 -20 -7 0 -5 -5 3 -10
13 -9 13 -11 0 -19 -8 -6 -12 -12 -9 -15 10 -11 27 11 32 41 3 17 13 131 23
253 12 145 21 219 28 217 40 -15 58 -18 52 -9 -7 12 28 4 64 -15 14 -7 33 -13
42 -13 9 0 20 -4 23 -10 9 -15 -18 -12 -61 7 -22 9 -58 17 -81 18 -42 1 -56
-8 -29 -18 15 -6 15 -16 2 -392 -4 -121 -11 -245 -16 -275 -5 -30 -12 -119
-15 -197 -5 -123 -4 -143 9 -143 12 0 16 26 19 153 3 83 11 271 18 417 7 146
13 304 12 353 -1 48 2 87 7 87 11 0 23 -113 15 -149 -3 -17 -11 -148 -17 -293
-18 -471 -20 -568 -8 -568 5 0 10 19 11 43 0 23 2 69 4 102 22 325 27 450 22
496 -4 29 -2 108 4 174 8 83 8 133 1 158 -10 37 -7 43 15 29 8 -5 10 -42 7
-127 -2 -66 -4 -194 -5 -285 0 -91 -4 -187 -9 -215 -5 -27 -12 -123 -16 -213
-6 -141 -5 -162 8 -162 13 0 17 31 23 198 10 258 18 561 19 690 1 98 9 128 22
78 3 -13 4 -59 1 -102 -2 -44 -7 -169 -10 -279 -3 -110 -8 -287 -12 -393 -5
-122 -4 -192 3 -192 12 0 35 564 36 893 1 83 9 113 18 64 8 -39 -2 -528 -12
-624 -16 -144 -13 -333 4 -333 11 0 15 43 21 223 9 307 11 707 4 738 -6 23 -4
26 12 22 20 -6 36 -23 21 -23 -5 0 -9 -113 -9 -262 -1 -145 -4 -361 -8 -480
-5 -138 -4 -218 2 -218 13 0 27 358 27 695 1 143 5 261 10 263 11 3 12 -470 1
-746 -5 -145 -5 -212 3 -212 5 0 12 6 15 14 7 19 12 344 10 681 l-1 279 -24 7
c-12 3 -53 20 -89 37 -36 17 -78 34 -92 37 -15 4 -30 11 -33 16 -3 5 -13 9
-23 9 -19 0 -48 26 -39 35 5 6 170 -41 214 -61 106 -47 119 -54 89 -48 -16 3
-60 19 -97 35 -36 16 -72 29 -80 29 -18 -1 33 -29 53 -30 9 0 22 -6 28 -13 6
-8 36 -20 66 -27 50 -12 83 -30 56 -30 -8 0 -9 -49 -6 -152 7 -259 7 -299 1
-423 -15 -297 -16 -395 -2 -395 21 0 34 471 22 853 l-3 118 31 -3 31 -3 8
-175 c4 -96 3 -295 -3 -442 -13 -350 -13 -348 5 -348 16 0 20 133 20 705 l0
260 -50 17 c-30 9 -41 16 -28 17 12 1 34 -4 49 -9 15 -6 47 -12 70 -14 47 -4
77 7 49 17 -9 4 -13 3 -10 -3 8 -13 3 -13 -32 1 -22 8 -25 12 -13 21 13 8 12
9 -2 5 -18 -6 -120 22 -182 51 -70 33 -95 34 -31 2 33 -17 87 -38 120 -46 33
-9 65 -20 70 -26 7 -8 4 -9 -10 -4 -11 4 -45 13 -75 21 -30 7 -78 24 -106 38
-57 29 -182 72 -235 82 l-36 7 7 -49z"/>
<path d="M768 1087 c-5 -10 -8 -31 -8 -45 0 -24 27 -143 45 -197 5 -14 2 -13
-10 5 l-16 25 7 -24 c3 -13 2 -21 -2 -18 -5 3 -9 -9 -10 -26 l-1 -32 13 30 c7
17 13 26 14 20 0 -5 5 -4 11 2 8 8 6 24 -5 57 -9 26 -16 54 -15 64 0 9 7 -4
16 -31 9 -26 18 -45 20 -43 8 8 -29 126 -38 121 -4 -3 -9 20 -11 52 -2 38 -6
52 -10 40z"/>
<path d="M854 978 c10 -125 17 -168 28 -168 5 0 7 12 4 28 -8 41 -20 185 -17
205 1 9 -3 17 -10 17 -8 0 -10 -22 -5 -82z"/>
<path d="M659 1034 c-62 -15 -125 -44 -96 -44 10 0 34 7 54 15 19 8 57 15 84
15 37 0 49 4 49 15 0 18 -16 18 -91 -1z"/>
<path d="M2091 999 c-26 -64 -27 -89 -2 -34 11 22 20 35 20 28 2 -23 -32 -82
-43 -76 -6 3 -8 3 -4 -2 4 -4 1 -19 -6 -34 -7 -14 -17 -37 -21 -51 l-7 -25 19
25 c36 46 66 121 68 171 1 27 1 49 0 49 -1 0 -12 -23 -24 -51z"/>
<path d="M741 958 c18 -124 1 -294 -36 -383 -20 -46 -36 -145 -23 -145 4 0 8
15 8 33 0 17 12 59 25 92 29 70 44 150 49 255 3 77 -12 200 -24 200 -3 0 -3
-24 1 -52z"/>
<path d="M445 976 c-131 -50 -135 -53 -82 -53 17 0 26 2 19 5 -19 6 96 52 131
52 15 0 27 5 27 10 0 15 -29 11 -95 -14z"/>
<path d="M640 975 l-35 -14 40 6 c22 3 49 9 60 14 18 7 17 8 -5 8 -14 0 -41
-7 -60 -14z"/>
<path d="M2840 970 c-15 -9 10 -20 48 -20 23 -1 25 -2 10 -11 -13 -7 -30 -5
-64 10 -25 12 -56 18 -68 15 -20 -5 -21 -8 -14 -117 4 -62 4 -277 1 -479 -4
-252 -3 -368 4 -368 7 0 14 88 19 248 10 326 10 390 0 564 l-9 147 29 -8 c26
-7 30 -13 38 -67 5 -32 8 -245 7 -471 -1 -250 2 -413 7 -413 22 0 27 794 5
902 -5 24 -3 30 8 26 8 -3 16 -16 18 -29 2 -13 4 -221 3 -461 -1 -375 1 -438
14 -438 12 0 14 43 16 273 2 319 -2 510 -12 587 -5 36 -4 60 3 69 18 21 17 40
-1 34 -8 -4 -13 -2 -10 3 7 11 -35 15 -52 4z"/>
<path d="M458 948 c-16 -14 -31 -47 -41 -86 -9 -34 -25 -78 -37 -97 -19 -31
-21 -40 -11 -86 17 -79 13 -132 -16 -211 -27 -70 -28 -80 -28 -270 0 -109 3
-198 7 -198 17 0 21 61 15 208 -7 154 -7 156 24 251 30 93 30 97 18 183 -11
82 -10 91 9 130 11 24 26 65 34 92 7 27 20 52 27 54 11 4 12 0 6 -14 -4 -11
-14 -39 -22 -64 -8 -25 -23 -64 -34 -88 -16 -35 -17 -50 -9 -85 16 -70 12
-149 -12 -218 -21 -58 -23 -83 -23 -256 0 -106 3 -193 7 -193 16 0 21 60 15
204 -6 142 -5 156 18 229 28 87 30 122 13 214 -10 54 -9 68 4 96 8 18 19 47
23 66 4 18 17 54 28 80 18 39 22 42 25 23 2 -13 -3 -33 -10 -45 -31 -48 -61
-166 -54 -210 19 -116 19 -135 -5 -209 -22 -66 -24 -91 -24 -260 0 -121 4
-187 10 -185 6 3 10 76 11 193 0 147 4 198 16 229 27 70 30 117 13 192 -16 69
-16 74 5 140 11 37 28 78 36 91 8 12 16 36 17 52 1 21 6 29 15 25 8 -3 16 -5
18 -5 2 0 0 -8 -5 -17 -73 -147 -88 -205 -71 -271 17 -69 13 -159 -10 -224
-18 -53 -20 -72 -13 -233 3 -96 10 -175 14 -175 12 0 15 104 6 224 -8 99 -7
117 13 184 23 75 23 81 4 242 -5 44 -1 66 16 110 12 30 27 69 34 85 17 44 34
71 40 64 7 -6 -15 -67 -39 -110 -8 -15 -21 -51 -29 -82 -13 -48 -13 -64 -1
-114 20 -80 18 -130 -5 -202 -17 -54 -18 -79 -13 -231 3 -93 9 -170 13 -170
14 0 18 135 8 222 -9 78 -8 97 12 177 20 80 21 95 10 152 -24 123 -24 121 20
230 41 103 55 128 65 118 3 -3 -6 -28 -20 -56 -32 -68 -65 -166 -65 -197 0
-14 7 -55 16 -92 15 -65 14 -72 -6 -161 -16 -64 -20 -107 -16 -137 4 -25 7
-92 7 -150 0 -58 4 -106 9 -106 15 0 22 122 11 215 -9 75 -8 101 5 154 16 62
15 104 -2 239 -7 58 2 101 42 192 13 30 25 66 27 80 2 24 14 40 29 40 4 0 4
-10 -1 -22 -17 -46 -22 -80 -12 -73 12 7 6 -37 -14 -105 -17 -54 -30 -175 -16
-144 13 30 53 242 47 252 -3 5 1 26 9 48 17 49 12 56 -31 48 -38 -7 -113 4
-98 14 15 12 15 32 -1 26 -8 -4 -12 -10 -9 -15 3 -5 -1 -9 -8 -9 -7 0 -23 -3
-35 -6 -14 -4 -23 -2 -23 5 0 7 4 10 9 6 10 -6 26 13 18 21 -3 3 -16 -5 -29
-18z"/>
<path d="M682 959 c-30 -12 -72 -14 -96 -4 -14 6 -17 5 -14 -6 3 -10 21 -14
60 -14 35 0 54 4 50 10 -3 6 2 4 11 -4 15 -12 17 -11 17 8 0 11 -1 21 -2 20
-2 0 -13 -4 -26 -10z"/>
<path d="M722 915 c-5 -105 -26 -248 -47 -315 -8 -25 -17 -58 -20 -75 -8 -40
-8 -143 0 -155 3 -6 0 -19 -8 -31 -11 -16 -12 -29 -5 -62 6 -23 11 -95 12
-159 1 -94 4 -118 15 -118 12 0 13 26 7 158 -4 106 -3 168 5 189 8 24 8 37 -1
50 -10 16 -10 15 -5 -4 4 -14 2 -23 -5 -23 -19 0 -9 128 16 211 32 109 46 212
42 309 -3 72 -4 76 -6 25z"/>
<path d="M2308 760 c-10 -118 -23 -278 -29 -355 -17 -209 -23 -405 -11 -405
12 0 18 54 21 189 1 57 6 126 12 154 5 27 9 104 9 169 0 66 5 184 11 262 6 77
9 155 7 171 -1 17 -11 -67 -20 -185z"/>
<path d="M2667 937 c-4 -13 -5 -39 -2 -58 8 -67 8 -399 0 -636 -6 -179 -5
-243 4 -243 7 0 12 24 13 63 0 34 2 73 4 87 2 14 4 197 5 408 2 260 -1 386 -8
393 -7 7 -12 3 -16 -14z"/>
<path d="M2953 935 c-6 -7 -8 -16 -3 -21 23 -23 32 -228 25 -566 -6 -257 -5
-348 4 -348 6 0 11 15 12 33 8 502 8 680 0 767 -7 79 -7 106 2 112 7 5 2 8
-13 9 l-25 1 25 7 c23 7 23 8 5 13 -11 3 -26 -1 -32 -7z"/>
<path d="M2797 803 c10 -173 10 -227 -1 -545 -8 -236 -7 -258 8 -258 14 0 16
26 19 243 4 480 -3 697 -25 697 -6 0 -7 -48 -1 -137z"/>
<path d="M904 880 c8 -84 18 -124 35 -137 14 -11 14 -12 1 -13 -11 0 -12 -2
-3 -8 9 -5 4 -17 -17 -39 -16 -17 -27 -33 -24 -36 9 -8 -34 -97 -46 -97 -6 0
-9 -4 -6 -8 2 -4 -4 -18 -14 -32 -15 -20 -21 -22 -33 -12 -11 9 -17 10 -22 2
-3 -6 -11 -7 -17 -4 -7 4 -8 2 -4 -4 4 -7 2 -12 -5 -12 -7 0 -9 -3 -6 -7 4 -3
15 1 25 10 10 10 22 14 25 10 11 -10 8 -33 -3 -33 -6 0 -22 -12 -35 -26 -22
-24 -53 -26 -39 -2 4 7 2 8 -5 4 -6 -4 -9 -11 -6 -16 3 -5 1 -30 -5 -56 -13
-56 -2 -364 12 -364 5 0 8 77 6 178 -1 125 1 184 10 202 11 22 12 18 7 -32 -3
-32 -2 -123 2 -203 8 -197 27 -192 22 8 -4 207 -1 267 12 267 9 0 10 -19 6
-66 -9 -88 4 -354 16 -354 6 0 8 56 6 148 -4 196 0 312 10 287 4 -11 8 -112 9
-224 1 -194 4 -223 18 -208 8 7 8 181 0 366 -3 89 -2 121 6 113 11 -11 23
-260 19 -409 -1 -77 13 -99 23 -35 8 43 -9 415 -18 431 -4 7 -1 9 8 5 18 -7
26 -102 29 -321 2 -145 9 -184 23 -129 3 14 2 114 -4 223 -5 109 -8 200 -6
202 2 2 7 2 10 -1 9 -9 26 -358 20 -406 -5 -34 -3 -42 11 -42 14 0 15 19 9
193 -4 105 -10 203 -13 216 -4 17 -2 22 8 19 14 -5 25 -140 28 -350 1 -47 5
-78 11 -78 12 0 12 254 0 352 -5 48 -4 58 7 54 18 -7 15 79 -4 142 -9 32 -10
49 -2 64 10 19 12 18 45 -17 19 -21 34 -41 34 -46 0 -5 9 -9 20 -9 22 0 27 15
8 26 -7 4 -8 3 -4 -4 4 -7 2 -12 -3 -12 -6 0 -11 8 -11 18 0 10 -11 25 -25 32
-14 7 -26 17 -26 22 -3 18 -5 24 -17 46 -7 12 -18 19 -24 16 -6 -4 -9 -3 -6 2
4 5 0 23 -8 39 -7 17 -12 23 -11 15 1 -9 -2 -17 -8 -18 -5 -1 -10 2 -10 7 0 5
-3 12 -7 16 -4 4 -4 14 -1 23 4 10 2 13 -5 8 -8 -5 -10 -2 -6 8 3 9 3 24 -1
34 -4 9 -10 32 -12 51 -7 62 -24 72 -19 11z m45 -246 c22 14 32 -18 38 -115 3
-59 2 -100 -3 -96 -5 5 -10 43 -11 85 -3 95 -4 102 -15 102 -4 0 -8 -39 -8
-87 0 -56 -3 -84 -10 -77 -5 5 -9 36 -9 69 0 33 1 80 1 105 0 25 2 37 5 27 2
-9 8 -15 12 -13z m-37 -137 c-3 -30 -7 -35 -18 -27 -9 9 -10 18 -3 37 5 15 9
33 8 42 -3 34 3 44 10 16 4 -17 6 -47 3 -68z"/>
<path d="M2922 863 c5 -32 9 -239 9 -460 -1 -225 3 -403 7 -403 15 0 25 648
12 784 -10 118 -14 136 -29 136 -4 0 -4 -26 1 -57z"/>
<path d="M355 900 c5 -8 -10 -9 -47 -4 -29 4 -50 4 -47 0 6 -6 35 -12 74 -15
7 -1 7 -4 0 -9 -5 -4 -20 -21 -32 -39 -20 -28 -23 -44 -21 -120 1 -79 -3 -99
-39 -198 l-40 -110 0 -202 c0 -112 4 -203 9 -203 9 0 12 61 13 275 1 147 2
152 35 230 30 72 33 91 35 188 2 83 6 112 19 126 9 9 16 22 16 28 0 6 7 16 15
23 11 9 15 9 15 1 0 -19 -30 -71 -40 -71 -6 0 -9 -45 -9 -107 1 -99 -2 -115
-32 -193 l-33 -85 -1 -207 c-1 -115 2 -208 6 -208 13 0 21 159 14 268 -7 107
-7 109 30 216 36 103 37 110 30 199 -6 84 -5 94 14 115 11 13 23 37 26 53 4
16 11 29 17 29 15 0 1 -50 -23 -83 -17 -24 -20 -41 -17 -135 2 -97 -1 -114
-27 -182 -28 -74 -29 -79 -29 -277 -1 -112 2 -203 6 -203 14 0 20 117 14 242
-7 127 -7 130 24 221 31 88 32 96 25 197 -6 97 -5 107 13 123 11 10 23 34 27
53 3 20 9 42 12 51 5 12 1 14 -17 8 -15 -5 -20 -4 -16 4 4 6 0 11 -9 11 -9 0
-13 -5 -10 -10z"/>
<path d="M687 885 c-14 -63 -41 -221 -41 -247 -1 -16 -4 -28 -7 -28 -4 0 -9
-9 -12 -20 -3 -13 -1 -18 5 -13 7 4 8 1 2 -8 -5 -8 -7 -22 -6 -31 2 -10 -1
-18 -5 -18 -5 0 -7 -18 -5 -40 3 -27 0 -40 -8 -40 -8 0 -10 8 -7 21 3 11 -1
47 -10 79 -14 56 -13 66 7 156 24 103 22 130 -3 62 -31 -86 -37 -141 -22 -199
19 -70 19 -127 0 -200 -12 -46 -14 -79 -7 -156 5 -54 7 -122 4 -150 -2 -32 0
-53 6 -53 19 0 24 61 16 169 -10 120 -9 167 5 196 6 11 12 31 14 45 3 18 5 14
6 -12 0 -20 4 -39 9 -41 4 -3 6 27 5 66 -1 40 5 98 13 131 8 32 13 65 10 72
-3 8 -2 14 3 14 10 0 44 217 39 250 -4 24 -4 24 -11 -5z"/>
<path d="M2100 893 c0 -17 -61 -103 -70 -98 -4 3 -10 -5 -13 -17 -4 -12 -2
-25 4 -29 7 -4 5 -32 -6 -84 -8 -43 -13 -80 -11 -83 7 -7 12 11 27 93 6 39 23
90 36 115 13 25 21 36 18 25 -28 -84 -36 -123 -47 -212 -6 -57 -16 -103 -20
-103 -5 0 -8 8 -7 18 1 9 0 26 -1 37 -2 14 -4 12 -9 -10 -6 -24 -3 -35 15 -52
28 -28 29 -28 30 0 4 66 24 211 38 264 9 34 16 66 15 70 -1 4 1 21 6 36 4 15
5 31 1 34 -3 4 -6 2 -6 -4z"/>
<path d="M232 803 c-3 -67 -11 -106 -39 -182 -71 -196 -72 -198 -72 -418 0
-126 3 -203 9 -203 11 0 16 136 11 300 -3 104 -2 106 49 250 44 121 52 158 54
223 2 71 16 111 33 94 4 -4 1 -13 -5 -19 -7 -7 -12 -42 -12 -85 0 -56 -7 -93
-31 -161 -66 -187 -66 -183 -67 -400 0 -111 3 -202 7 -202 12 0 21 192 15 305
-6 100 -6 100 37 210 37 97 43 122 47 210 3 72 9 105 20 118 18 20 10 31 -28
40 -25 6 -25 6 -28 -80z"/>
<path d="M150 857 c-20 -10 -26 -20 -28 -57 -2 -25 -9 -54 -16 -65 -7 -11 -28
-67 -46 -125 -17 -58 -38 -123 -45 -146 -17 -50 -21 -469 -5 -459 6 4 10 87
10 212 0 225 3 241 82 448 17 44 35 104 41 133 6 28 15 52 19 52 14 0 8 -54
-13 -110 -11 -30 -40 -113 -64 -185 l-45 -130 0 -212 c0 -136 4 -213 10 -213
10 0 15 152 10 330 -1 76 3 98 40 208 22 68 49 144 59 170 21 53 37 162 24
162 -4 -1 -19 -6 -33 -13z"/>
<path d="M198 784 c-9 -44 -39 -143 -67 -221 l-50 -143 0 -210 c-1 -131 3
-210 9 -210 10 0 16 153 11 320 -2 92 -1 100 49 240 61 170 72 215 68 265 -3
32 -5 26 -20 -41z"/>
<path d="M55 829 c-29 -8 -55 -46 -55 -78 0 -9 9 4 20 28 31 68 36 40 6 -34
-14 -36 -26 -78 -26 -93 0 -19 7 -9 24 38 39 105 50 130 58 130 13 0 9 -17
-16 -78 -36 -85 -66 -190 -66 -226 1 -20 13 9 36 83 19 62 41 126 49 142 18
34 24 91 10 94 -5 2 -23 -1 -40 -6z"/>
<path d="M883 763 c4 -21 11 -39 16 -41 6 -2 7 -11 4 -20 -4 -12 -3 -14 5 -7
12 11 5 55 -8 55 -4 0 -5 11 -2 25 3 16 0 25 -8 25 -9 0 -11 -11 -7 -37z"/>
<path d="M786 735 c3 -22 1 -74 -4 -115 -5 -41 -7 -78 -3 -82 4 -4 7 0 8 10
13 147 14 191 5 208 -9 15 -10 11 -6 -21z"/>
<path d="M1774 697 c-58 -34 -80 -53 -77 -64 3 -8 -4 -13 -17 -13 -13 0 -20
-5 -18 -14 2 -8 -6 -22 -17 -31 -20 -16 -19 -16 5 -10 14 4 36 8 50 9 34 2 50
14 43 31 -3 8 0 15 7 15 6 0 8 -5 4 -12 -4 -7 2 -4 14 6 12 11 25 17 27 14 3
-3 -8 -17 -24 -31 -24 -20 -27 -26 -15 -31 13 -5 12 -10 -8 -34 -14 -18 -26
-25 -30 -18 -4 6 -2 14 5 19 8 6 6 7 -6 3 -10 -3 -23 -6 -28 -6 -13 0 -11 -37
2 -46 8 -4 9 0 4 15 -4 12 -2 21 4 21 19 0 12 -46 -10 -66 -12 -10 -23 -17
-24 -14 -2 3 -7 1 -12 -4 -5 -5 -3 -6 5 -2 17 10 15 -4 -6 -39 -27 -44 -56
-395 -33 -395 4 0 11 39 15 88 16 214 25 295 34 304 12 12 7 -93 -9 -220 -12
-96 -12 -172 1 -172 6 0 10 3 11 8 0 4 2 23 4 42 2 19 9 107 16 195 6 88 12
169 14 180 3 30 48 112 53 97 2 -7 -4 -25 -14 -39 -20 -31 -19 -27 -34 -228
-18 -238 -19 -255 -5 -255 8 0 14 34 19 112 12 223 24 324 38 353 9 17 18 46
22 66 4 21 13 42 20 48 11 9 11 3 0 -38 -7 -27 -18 -59 -24 -71 -20 -38 -50
-470 -33 -470 6 0 13 35 16 78 17 254 31 389 41 399 12 13 8 -76 -14 -277 -13
-120 -13 -200 0 -200 6 0 11 15 11 33 1 17 3 48 5 67 2 20 10 118 18 218 9
101 21 191 26 200 8 13 10 2 6 -43 -3 -33 -10 -123 -16 -200 -6 -77 -13 -170
-16 -208 -4 -54 -2 -67 9 -67 11 0 16 24 20 113 3 61 10 166 16 232 18 197 19
215 8 208 -12 -7 0 48 14 62 12 12 3 -291 -11 -385 -13 -86 -13 -230 0 -230 6
0 10 30 10 71 0 38 4 100 10 137 5 37 14 130 20 207 11 131 11 143 -8 185 -40
94 -88 127 -138 97z m66 -4 c0 -2 -10 -8 -22 -13 -13 -6 -42 -22 -65 -35 -24
-14 -43 -21 -43 -15 0 5 5 10 10 10 6 0 18 8 29 19 26 26 47 37 71 37 11 0 20
-2 20 -3z m-5 -39 c-23 -20 -25 -23 -7 -14 45 22 51 8 27 -65 -26 -75 -35 -89
-35 -53 0 13 11 46 24 71 13 26 22 47 20 47 -2 0 -22 -18 -46 -39 -23 -22 -47
-37 -52 -34 -5 4 3 17 18 30 15 13 25 26 22 31 -9 14 27 49 54 51 3 0 -8 -11
-25 -25z"/>
<path d="M837 650 c-3 -11 -2 -34 3 -50 4 -16 6 -31 4 -34 -2 -3 -1 -4 3 -1 6
5 5 96 -2 103 -1 1 -5 -7 -8 -18z"/>
<path d="M755 620 c-4 -22 -15 -58 -26 -79 -21 -44 -24 -61 -10 -61 5 0 16 21
25 48 16 53 30 132 23 132 -3 0 -8 -18 -12 -40z"/>
<path d="M1023 578 c6 -16 15 -28 19 -28 4 0 17 -21 29 -47 11 -27 34 -74 51
-107 28 -56 29 -65 31 -205 1 -80 -2 -157 -7 -170 -6 -18 -5 -22 5 -19 21 7
31 82 26 201 -2 59 0 107 4 107 4 0 -13 41 -38 91 -24 50 -42 94 -39 97 3 3 6
2 6 -2 0 -4 8 -2 18 3 15 8 17 4 18 -33 1 -23 12 -64 26 -91 21 -43 25 -66 26
-160 1 -60 -2 -134 -6 -162 -7 -39 -6 -53 3 -53 16 0 35 162 26 233 -6 45 -4
57 6 53 7 -3 13 -3 13 -1 0 13 -52 120 -70 142 -13 17 -17 30 -11 37 6 7 3 26
-9 51 -16 33 -26 34 -21 3 3 -21 -49 11 -87 52 -29 32 -31 33 -19 8z"/>
<path d="M1689 560 c-9 -5 -27 -11 -40 -13 -13 -2 -25 -9 -27 -15 -2 -8 3 -10
15 -6 50 16 73 27 73 35 0 11 -1 11 -21 -1z"/>
<path d="M1020 538 c0 -3 11 -30 24 -59 22 -52 23 -64 22 -266 -1 -138 3 -212
9 -210 17 6 25 129 17 246 -4 61 -5 111 -2 111 20 0 -21 132 -52 165 -10 11
-18 17 -18 13z"/>
<path d="M1930 361 c-22 -310 -23 -361 -7 -361 10 0 14 20 15 88 1 48 6 127
11 177 6 50 13 121 16 159 4 37 10 64 15 60 4 -5 0 -88 -9 -184 -19 -205 -20
-300 -2 -300 5 0 11 53 14 118 3 64 10 170 16 235 l10 118 -33 33 -33 33 -13
-176z"/>
<path d="M1633 513 c-13 -2 -23 -10 -23 -17 0 -8 -8 -31 -17 -52 -9 -22 -17
-42 -17 -45 -1 -11 -41 -59 -48 -59 -13 0 -48 -34 -48 -47 0 -6 -4 -14 -9 -17
-4 -3 -6 6 -3 19 2 14 2 25 -1 25 -17 0 -75 -35 -71 -42 3 -4 10 -6 15 -3 5 4
9 0 9 -7 0 -10 3 -9 9 2 6 8 7 19 4 25 -3 5 0 5 7 -2 15 -14 5 -47 -13 -40 -6
2 -21 -3 -31 -12 -18 -15 -18 -15 -7 7 10 18 9 22 -4 22 -9 0 -13 -4 -10 -10
3 -5 2 -10 -3 -10 -11 0 -38 53 -44 84 -4 23 -28 34 -28 13 0 -8 15 -38 34
-65 26 -39 30 -52 20 -56 -8 -3 -14 1 -14 11 0 9 -12 31 -26 50 -14 18 -24 43
-23 56 3 29 -14 68 -37 88 -64 55 -104 43 -61 -18 38 -55 57 -108 52 -140 -9
-59 -14 -273 -7 -273 16 0 35 174 24 224 -9 45 -9 47 9 43 10 -3 18 -2 16 1
-2 4 -12 25 -22 47 -10 22 -26 52 -36 66 -20 28 -42 79 -34 79 3 0 16 -21 30
-47 14 -27 44 -82 67 -123 27 -49 40 -86 39 -107 -1 -24 3 -33 14 -33 10 0 15
10 15 30 0 19 5 30 14 30 7 0 19 7 26 15 7 8 17 15 23 15 7 0 7 -4 -1 -12 -16
-16 -15 -60 1 -77 10 -11 10 -13 0 -7 -9 5 -13 0 -14 -16 0 -13 -3 -47 -5 -75
-4 -43 -2 -52 10 -47 11 4 14 20 13 57 -2 38 2 51 11 49 7 -1 23 10 36 25 l23
26 -5 -81 c-3 -57 -1 -82 7 -82 7 0 11 25 11 71 0 79 27 249 43 264 6 7 7 -4
2 -30 -25 -137 -35 -312 -17 -301 4 3 7 37 7 75 -1 39 1 71 5 71 5 0 8 10 7
23 -1 47 30 194 39 184 3 -2 0 -24 -5 -48 -17 -73 -26 -309 -12 -309 7 0 11
24 12 68 1 116 24 287 42 315 23 36 21 42 -5 17 -13 -12 -32 -26 -43 -32 -18
-10 -18 -8 3 14 12 13 22 31 22 40 0 8 9 23 20 33 12 10 18 25 16 32 -3 7 3
17 12 22 18 11 13 11 -25 4z m-130 -274 c-6 -68 -24 -96 -57 -83 -35 14 -28
69 9 60 19 -5 23 1 34 45 7 28 15 49 16 47 2 -2 1 -33 -2 -69z"/>
<path d="M1028 433 c-8 -130 -2 -433 8 -433 16 0 23 122 13 258 -5 76 -4 119
2 123 12 7 2 76 -12 85 -5 3 -10 -12 -11 -33z"/>
<path d="M2026 439 c-6 -25 -12 -114 -22 -316 -4 -78 -3 -123 3 -123 6 0 13
50 16 113 4 61 11 162 16 222 5 61 6 114 1 119 -5 5 -11 -1 -14 -15z"/>
<path d="M2056 328 c-3 -62 -9 -161 -12 -220 -6 -93 -4 -108 9 -108 12 0 16
25 22 148 11 248 11 285 -1 289 -8 3 -13 -33 -18 -109z"/>
<path d="M2236 419 c3 -6 -4 -7 -19 -4 -24 6 -24 6 -31 -92 -19 -267 -19 -323
-3 -323 13 0 16 24 21 147 7 181 15 253 28 253 6 0 8 -15 4 -37 -13 -81 -19
-363 -7 -363 7 0 11 37 11 120 0 65 4 141 9 167 20 104 20 131 0 136 -11 3
-16 1 -13 -4z"/>
<path d="M2104 378 c-1 -24 -5 -118 -9 -210 -5 -113 -5 -168 2 -168 6 0 13 54
17 138 3 75 10 170 14 210 6 61 5 72 -8 72 -11 0 -15 -12 -16 -42z"/>
<path d="M2146 342 c-15 -180 -19 -342 -7 -342 6 0 11 17 12 38 1 79 10 210
19 280 12 92 13 89 -4 95 -10 4 -15 -12 -20 -71z"/>
<path d="M1112 257 c6 -122 4 -176 -8 -234 -3 -15 0 -23 9 -23 29 0 33 349 4
377 -9 10 -11 -15 -5 -120z"/>
<path d="M1340 346 c0 -1 5 -17 11 -35 13 -38 33 -41 26 -4 -5 25 -4 26 8 10
8 -11 16 -14 19 -8 7 11 -31 41 -51 41 -7 0 -13 -2 -13 -4z"/>
<path d="M606 276 c3 -19 7 -89 7 -155 1 -67 5 -121 8 -121 20 0 23 65 13 218
-5 69 -10 92 -21 92 -10 0 -12 -9 -7 -34z"/>
<path d="M1285 215 c3 -22 0 -77 -6 -123 -11 -75 -9 -105 7 -90 3 4 11 51 17
105 9 89 9 102 -6 124 l-17 24 5 -40z"/>
<path d="M1377 193 c-10 -9 -8 -83 2 -83 4 0 8 20 7 45 0 25 -1 45 -1 45 -1 0
-5 -3 -8 -7z"/>
<path d="M1326 116 c-9 -33 -7 -66 4 -66 6 0 10 -4 10 -10 0 -5 -7 -7 -15 -4
-11 5 -15 -1 -15 -17 0 -19 2 -21 10 -9 9 13 11 13 20 0 7 -11 10 -4 10 28 0
26 -4 41 -10 37 -5 -3 -10 -1 -10 5 0 6 8 10 18 8 10 -2 16 -11 14 -21 -2 -9
2 -17 8 -17 5 0 10 4 10 9 0 5 3 17 7 27 5 13 2 16 -8 12 -8 -3 -23 -2 -34 3
-17 6 -17 8 -2 8 20 1 23 28 3 28 -8 0 -17 -10 -20 -21z"/>
<path d="M1450 50 c0 -27 5 -50 10 -50 6 0 10 23 10 50 0 28 -4 50 -10 50 -5
0 -10 -22 -10 -50z"/>
</g>
</svg>
